<?xml version="1.0" encoding="UTF-8" standalone="no"?>
<!-- Created with Inkscape (http://www.inkscape.org/) -->

<svg
   xmlns:dc="http://purl.org/dc/elements/1.1/"
   xmlns:cc="http://creativecommons.org/ns#"
   xmlns:rdf="http://www.w3.org/1999/02/22-rdf-syntax-ns#"
   xmlns:svg="http://www.w3.org/2000/svg"
   xmlns="http://www.w3.org/2000/svg"
   xmlns:sodipodi="http://sodipodi.sourceforge.net/DTD/sodipodi-0.dtd"
   xmlns:inkscape="http://www.inkscape.org/namespaces/inkscape"
   width="1028"
   height="1028"
   viewBox="0 0 1028 1027.9999"
   id="svg4239"
   version="1.1"
   inkscape:version="0.91 r13725"
   sodipodi:docname="GremlinIcon.svg">
  <defs
     id="defs4241" />
  <sodipodi:namedview
     id="base"
     pagecolor="#ffffff"
     bordercolor="#666666"
     borderopacity="1.0"
     inkscape:pageopacity="0.0"
     inkscape:pageshadow="2"
     inkscape:zoom="0.49497475"
     inkscape:cx="338.67714"
     inkscape:cy="527.58297"
     inkscape:document-units="px"
     inkscape:current-layer="layer1"
     showgrid="false"
     units="px"
     width="512px"
     inkscape:window-width="1280"
     inkscape:window-height="672"
     inkscape:window-x="-8"
     inkscape:window-y="-8"
     inkscape:window-maximized="1" />
  <metadata
     id="metadata4244">
    <rdf:RDF>
      <cc:Work
         rdf:about="">
        <dc:format>image/svg+xml</dc:format>
        <dc:type
           rdf:resource="http://purl.org/dc/dcmitype/StillImage" />
        <dc:title />
      </cc:Work>
    </rdf:RDF>
  </metadata>
  <g
     inkscape:label="Layer 1"
     inkscape:groupmode="layer"
     id="layer1"
     transform="translate(0,-24.3623)">
    <path
       style="opacity:1;fill:#2ba377;fill-opacity:1;fill-rule:evenodd;stroke:#000000;stroke-width:5;stroke-linecap:butt;stroke-linejoin:miter;stroke-opacity:1;stroke-miterlimit:4;stroke-dasharray:none"
       d="m 559.82386,427.54012 c -29.87981,-52.72898 30.05215,-272.21833 170.49056,-300.55551 133.92608,-27.02316 201.68854,61.5172 201.68854,61.5172 0,0 71.18424,91.39697 60.63836,194.65799 -0.82081,8.03783 -28.1237,39.49553 -33.95318,52.47859 -9.57501,21.32506 0.63967,49.58964 -10.97104,66.97073 -16.98191,25.42113 -27.35263,32.25851 -42.40982,43.69084 -27.24206,20.68395 -125.67554,68.2402 -166.20476,118.52088 -19.77341,19.33399 -73.82067,137.09543 -40.42547,207.40083 33.39503,70.30544 -227.17436,37.3498 -225.4167,5.71236 1.07447,-21.04508 39.96601,-15.13961 76.9693,-38.19422 19.78904,-12.32956 42.86528,-25.09056 49.58048,-44.85406 13.24233,-38.97405 34.55177,-38.99503 52.41183,-57.41716 13.25853,-13.67602 20.47375,-43.21296 42.93977,-76.16315 52.72906,-77.33594 177.77496,-106.37397 186.30927,-145.00471 8.36925,-37.88431 -24.60691,-34.27408 -24.60691,-34.27408 0,0 -41.43998,27.00401 -79.97234,-2.63633 -22.84924,-17.57643 -106.33683,27.24326 -106.33683,27.24326 0,0 -49.21383,31.63747 -80.85126,-7.0305 -31.63743,-38.66796 -29.8798,-72.06296 -29.8798,-72.06296 z"
       id="path4153"
       inkscape:connector-curvature="0"
       sodipodi:nodetypes="cscsssscscssssscscsc" />
    <path
       style="opacity:1;fill:#2ba377;fill-opacity:1;fill-rule:evenodd;stroke:#000000;stroke-width:5;stroke-linecap:butt;stroke-linejoin:miter;stroke-opacity:1;stroke-miterlimit:4;stroke-dasharray:none"
       d="m 361.96276,625.93738 c -2.46104,4.92235 -23.49823,12.12212 -23.49823,12.12212 0,0 -3.71933,13.25352 -10.61029,19.89809 -3.69158,4.43013 -8.43032,13.23315 -8.43032,13.23315 2.70714,9.35217 -3.40329,45.23872 -3.40329,45.23872 -0.73829,11.56692 -18.26004,24.63717 -19.49058,32.02021 0,0 -0.30351,34.15256 8.06401,43.9966 14.02802,12.55164 53.6511,82.19941 53.6511,82.19941 l -41.83802,16.24301 -36.42369,-86.62924 -7.8754,-26.08705 c 0,0 -52.04479,-13.26944 -60.04986,-25.10297 -8.70115,-20.88281 -15.7508,-70.38622 -15.7508,-70.38622 -7.30895,-15.66203 -33.42718,-38.64728 -33.42718,-38.64728 -17.05425,-16.70624 -31.32415,-23.66708 -31.32415,-23.66708 -41.417518,-29.23594 -97.569495,-44.40322 -100.237356,-46.63834 -12.877719,-10.7893 -3.828519,-26.79942 -3.828519,-26.79942 10.789444,-2.78458 3.480468,6.96083 14.966004,10.09317 35.848787,20.18666 102.673681,38.98136 114.855301,52.90303 l 41.76555,28.53978 c 7.65701,-12.52969 -6.26481,-45.24604 -6.26481,-45.24604 -10.78945,-17.05433 -10.78945,-28.88786 -22.27496,-36.19677 -9.39726,-0.34807 -27.14763,-6.26468 -27.14763,-6.26468 -13.57381,1.0439 -16.01014,6.26468 -28.53979,0.69584 0,0 -11.13752,-3.8285 -11.8336,-16.70626 0,0 -1.04412,-10.09316 11.8336,-9.04894 0,0 13.57382,5.91661 18.7945,13.92164 0,0 21.23081,-6.61276 27.8437,-6.96083 5.9168,-1.0442 13.92185,4.17658 13.92185,4.17658 6.96092,4.17656 12.52966,12.87775 13.92185,20.88281 3.82851,2.78426 11.83357,4.17656 16.70622,13.92166 4.17656,8.35312 6.96092,30.62822 6.96092,30.62822 l 9.74533,22.27511 17.40229,-8.35312 -4.87265,-11.83354 c 0,0 -9.74528,-11.83386 -12.52964,-16.01043 -2.78441,-4.17656 -6.26485,-22.27478 -5.56877,-25.05905 0.69612,-2.78459 11.83359,-17.4024 11.83359,-17.4024 l 0.69611,-10.44157 -6.96093,4.17656 c -9.35204,-0.49219 -5.56877,-10.44123 -5.56877,-10.44123 0.24594,-5.16829 5.68242,-6.86986 8.35313,-7.65698 9.18313,-2.70729 16.69896,-2.79159 20.88277,1.39197 4.67602,5.16829 1.3922,13.92199 1.3922,13.92199 0.24594,5.90642 -10.39193,17.43737 -15.31405,20.88281 -4.42992,14.76638 2.12325,27.91364 5.56874,34.80447 10.09034,4.18387 18.79452,13.92199 18.79452,13.92199 l 13.92186,-9.74543 c 0,0 -4.26102,-7.72698 -2.78439,-14.6178 1.47663,-6.64489 6.51096,-3.67705 6.26485,-8.35314 -1.96885,-8.6137 0.8155,-24.96774 2.78435,-30.62823 0,0 -1.80718,-6.25004 1.3922,-14.61781 3.4455,-8.6137 10.18802,-2.34774 14.61794,-18.09854 -6.39877,-1.72254 -9.0492,-8.35311 -9.0492,-8.35311 -2.9533,-6.39865 0.69611,-11.13739 0.69611,-11.13739 8.12149,-5.1683 18.7945,4.87269 18.7945,4.87269 4.42991,4.67607 8.35312,13.92199 8.35312,13.92199 1.96885,4.18357 -1.3922,10.44124 -1.3922,10.44124 -4.92211,3.93763 -11.13749,4.17656 -11.13749,4.17656 1.96885,3.93763 -1.39218,13.87236 -1.39218,13.87236 -0.24627,4.92201 -5.39982,12.25573 -5.39982,12.25573 0,0 4.261,10.87713 -0.16895,17.02984 -4.67602,29.53246 -10.4414,23.66707 -10.4414,23.66707 l 5.56875,29.93177 c 0,0 14.70241,9.56819 13.22577,41.06947 0,0 5.80367,-4.30922 14.37183,-17.28276 4.88255,-7.3929 24.60936,-30.05139 24.60936,-30.05139 7.87541,-12.05913 25.05935,-16.01011 25.05935,-16.01011 3.44548,-8.1215 12.52965,-11.83354 12.52965,-11.83354 18.45795,-11.32098 18.09841,2.78427 18.09841,2.78427 3.69158,3.93761 0,9.04927 0,9.04927 -2.95326,3.69168 -15.31405,4.87271 -15.31405,4.87271 0,6.64489 -18.09837,22.27478 -18.09837,22.27478 z"
       id="path4166"
       inkscape:connector-curvature="0"
       sodipodi:nodetypes="cccccccccccccccscccccccccccccccccccscccccscccccccccccccccccccccccsccccccc" />
    <path
       style="opacity:1;fill:#24524f;fill-opacity:1;fill-rule:evenodd;stroke:none;stroke-width:1px;stroke-linecap:butt;stroke-linejoin:miter;stroke-opacity:1"
       d="m 684.42441,405.83929 c 2.69733,1.13141 12.52974,-19.83858 18.09845,-20.18665 5.56872,-0.34808 13.83485,2.52337 14.96599,-1.39199 1.05901,-7.2672 -2.37823,-4.06073 -3.82838,-16.0104 4.37447,-2.40216 8.13466,-4.18993 9.7453,-3.8285 13.74836,-0.51606 26.43208,4.47024 41.41738,-2.43619 7.30903,-5.68467 17.92175,-5.98024 22.18799,-17.75048 -0.0612,-4.32131 -1.03245,-8.81699 1.13114,-13.57357 8.814,-10.74129 18.75924,-17.23951 26.44189,-32.22321 0.86179,-2.86316 -0.69365,-2.34202 -2.07863,-2.05949 -8.84602,4.70376 -7.78937,13.80267 -19.83868,15.48801 -5.51991,-1.52465 -11.19147,-4.92012 -17.40222,-14.96589 -2.22501,-6.49281 -4.68856,-11.15649 -6.26491,-22.62319 -1.5353,-2.99426 -1.90073,-5.52494 -15.314,-13.22551 -7.99337,-5.41042 -16.8521,-3.24879 -25.75548,-0.69615 -3.185,2.76741 -6.47815,4.72223 -9.22313,10.78932 -0.69592,1.76328 -5.00058,7.47912 -4.69864,15.66202 -10.01372,8.84438 -9.65395,9.90897 -11.83363,12.87779 -4.05293,6.14439 -4.98724,17.1892 -4.17658,30.9763 0.13873,3.74543 0.14644,7.29649 6.61294,20.53472 -0.016,2.70092 0.68782,5.2227 -1.04423,8.35312 -2.43625,2.45211 -4.8727,1.86255 -7.30895,2.43621 -5.23606,-3.68181 -10.52512,-7.25736 -15.31409,-11.83353 -1.87519,-0.62521 -18.56699,2.51223 -16.35811,2.43618 0.0603,0.0414 1.51362,1.1209 14.96598,1.39229 4.63525,4.21697 9.07782,5.7378 13.92186,12.87776 0.69132,3.04486 -0.11584,4.14188 -1.74023,4.17657 -5.48347,-1.14444 -8.38932,1.25517 -12.18163,2.4362 -3.68446,2.55677 -2.67095,3.81733 0.34801,4.52462 4.58148,0.16227 7.74087,-0.57937 14.61798,1.04422 1.86539,3.74546 0.46414,3.94464 0.69621,5.91662 0,0 -12.87784,20.01295 -10.7896,20.8828 z"
       id="path4172"
       inkscape:connector-curvature="0"
       sodipodi:nodetypes="cscccccccccccccccccccccccccccccc" />
    <path
       style="opacity:1;fill:#a342f2;fill-opacity:1;fill-rule:evenodd;stroke:none;stroke-width:1px;stroke-linecap:butt;stroke-linejoin:miter;stroke-opacity:1"
       d="m 781.22166,331.42764 c -6.00101,9.18672 -1.90854,11.11671 -6.25841,17.95219 -4.34988,6.8358 -11.27059,12.28756 -26.24712,10.44792 -21.54321,-2.64618 -22.42702,-7.92104 -24.9536,-12.09571 -3.95468,-6.81064 -1.79854,-7.78329 -4.28423,-13.376 -2.4856,-5.59272 -11.69385,-2.93794 -14.17956,-9.15204 -2.48563,-6.21442 -2.03976,-26.30976 14.11721,-36.25244 16.15675,-9.9427 16.02648,-17.05115 28.5598,-15.93693 13.98195,1.24276 18.02111,22.06034 28.27452,28.58497 9.00076,9.39035 10.14537,22.36992 4.97139,29.82804 z"
       id="path4155"
       inkscape:connector-curvature="0"
       sodipodi:nodetypes="csscsssscc" />
    <path
       sodipodi:nodetypes="cccccccccccccccccczcczcccccscssscsccccscccscscscc"
       inkscape:connector-curvature="0"
       id="path4168"
       d="M 559.82386,427.54012 C 529.94405,374.81114 589.87601,155.32179 730.31442,126.98461 619.21574,246.14094 622.24149,317.27914 601.01079,323.19575 c 0,0 -32.50817,8.29997 -19.86364,55.79736 3.06353,6.07634 6.02767,11.80937 8.95641,17.19591 4.36127,-18.9614 14.69342,-19.42975 26.06054,-33.09434 3.59169,-2.30003 7.68331,-4.48677 13.80516,-6.21156 3.12728,-8.3124 6.25466,-10.82175 9.38192,-15.60221 6.6848,-7.00092 13.27661,-12.51313 19.72943,-15.80488 4.14276,-1.57366 8.3378,-2.31051 12.71103,-0.19727 2.50566,1.73083 4.57705,3.68787 -1.25434,5.80208 -4.23063,2.01495 -6.11911,1.54119 -8.61535,1.71332 -3.70529,0.4238 -10.77481,12.33243 -14.11777,12.36518 -3.58275,1.31117 -7.1654,1.28253 -10.74796,7.8775 -0.64741,1.89307 -1.00231,4.13741 -2.41252,5.11546 -6.01344,3.64713 -14.44939,4.24528 -16.57727,11.34644 -2.68593,43.49484 5.42742,49.90365 8.26001,73.54751 7.15823,5.24465 11.67068,8.30284 20.99458,10.71646 1.39213,-4.35061 -4.97319,-14.70054 -7.9477,-23.60026 -2.9746,-8.89974 -6.03199,-23.87549 -6.03199,-28.7482 -0.17424,-5.46162 6.57826,-9.63565 6.63948,-1.71141 -0.26098,5.482 1.29013,19.29134 5.38779,29.12458 4.09764,9.83355 10.85523,23.8271 19.55638,28.17772 6.8708,0.6831 14.38798,0.77155 22.68379,0.2609 -8.61378,-2.3379 -21.04244,-15.5071 -21.04244,-15.5071 -1.76557,-2.26916 0.30129,-7.42598 4.95227,-3.4486 0,0 18.66053,17.27515 28.874,17.76734 19.61162,-6.26501 54.62696,-11.67319 54.62696,-11.67319 16.16777,0.36591 26.57366,5.20042 34.49611,10.85137 1.91391,-2.43969 22.66315,-12.81732 34.65207,-32.32437 2.33416,-3.79795 9.91359,-14.50358 12.8363,-15.31936 4.14381,-1.15653 2.85574,3.1826 -3.19,12.27642 -3.50307,5.26915 -32.49696,41.24957 -34.36387,43.55912 6.73206,5.9847 12.40314,10.92804 21.00343,10.38557 8.58449,-0.54152 49.08367,-15.63213 60.01306,-13.81125 13.78201,6.15268 16.68392,-35.11406 16.68392,-35.11406 0.31717,-10.72982 5.33493,-8.41772 5.01362,-1.59274 0,0 -1.44873,45.91738 -21.65354,46.33449 -5.20402,17.86246 12.80342,21.40206 10.47481,34.35427 -5.40924,30.08893 -31.18096,38.17512 -46.2383,49.60778 -3.8476,2.82468 -95.43288,51.99274 -114.11319,70.75051 l -3.60742,1.72956 C 786.6781,573.92693 874.3728,548.43295 881.471,516.30329 c 8.36925,-37.884 -24.60691,-34.27378 -24.60691,-34.27378 0,0 -41.43998,27.00369 -79.97234,-2.63664 -22.84924,-17.57643 -106.33683,27.24326 -106.33683,27.24326 0,0 -49.21383,31.63747 -80.85126,-7.0305 -31.63743,-38.66796 -29.8798,-72.06296 -29.8798,-72.06296 z"
       style="opacity:1;fill:#24524f;fill-opacity:1;fill-rule:evenodd;stroke:none;stroke-width:1px;stroke-linecap:butt;stroke-linejoin:miter;stroke-opacity:1" />
    <path
       style="opacity:1;fill:#24524f;fill-opacity:1;fill-rule:evenodd;stroke:none;stroke-width:1px;stroke-linecap:butt;stroke-linejoin:miter;stroke-opacity:1"
       d="m 627.30623,764.9193 c -6.58741,7.51159 -11.85915,14.87902 -16.39861,21.68808 5.01339,-3.91566 11.20239,1.1734 18.28566,-2.30764 3.21667,-1.41012 9.25912,-0.57556 13.98356,-2.92553 4.60503,-2.29017 7.89703,-7.7887 10.73158,-7.44508 14.44382,3.48042 -9.80528,14.08169 -9.80528,14.08169 -4.83275,1.67419 -6.74346,3.40056 -29.18179,4.76008 0,0 -8.56761,0.0795 -13.26625,8.08459 -4.20144,6.39545 -8.0383,11.70978 -12.3197,15.36964 -24.82278,21.2191 -51.5387,35.38259 -76.2827,48.60745 -19.45223,10.39671 -40.41205,24.25601 -39.79235,13.10145 1.07447,-21.04508 39.96601,-15.13961 76.9693,-38.19422 19.78904,-12.32956 42.86528,-25.09056 49.58048,-44.85406 13.24233,-38.97405 34.55177,-38.99503 52.41183,-57.41716 2.46196,-2.31719 7.40087,2.21316 6.37219,5.11578 -0.91753,2.64238 -9.71675,2.92617 -10.68703,3.79191 -7.21165,6.43586 -16.99215,14.42819 -20.60089,18.54302 z"
       id="path4170"
       inkscape:connector-curvature="0"
       sodipodi:nodetypes="sccsccccsscssccss" />
    <path
       style="opacity:1;fill:#24524f;fill-opacity:1;fill-rule:evenodd;stroke:none;stroke-width:1px;stroke-linecap:butt;stroke-linejoin:miter;stroke-opacity:1"
       d="m 263.24825,757.00706 c 0,0 -27.07167,-81.7072 1.23051,-92.04345 28.30218,-10.33659 32.23991,-17.47367 32.23991,-17.47367 0,0 -13.04364,2.46101 -17.96575,-3.19917 -4.92213,-5.66049 -6.89096,-13.53604 -6.89096,-13.53604 l -74.57012,28.79433 c 0,0 21.41122,18.21213 17.47351,40.36156 -3.93769,22.14941 11.81309,6.15268 13.78193,8.12149 1.96883,1.96882 2.62667,4.54085 2.95331,11.81318 0.46706,10.39892 13.28968,15.99674 13.28968,15.99674 z"
       id="path4183"
       inkscape:connector-curvature="0"
       sodipodi:nodetypes="cscsccssscc" />
    <path
       style="fill:#514d07;fill-opacity:1;fill-rule:evenodd;stroke:#000000;stroke-width:5;stroke-linecap:butt;stroke-linejoin:miter;stroke-opacity:1;stroke-miterlimit:4;stroke-dasharray:none"
       d="m 24.862655,551.37047 c 0,0 -12.491507,24.98295 -0.568563,49.96587 11.9239,24.98295 24.415089,55.64399 24.415089,72.10999 0,16.466 27.254399,96.52488 49.966028,114.12658 22.711631,17.60153 17.033961,40.31329 33.499991,51.1014 16.46604,10.78811 21.5761,6.81358 25.55063,2.27119 3.97452,-4.54238 3.97452,-24.98295 -5.11007,-30.09317 -9.0849,-5.11006 -36.90691,-34.63536 -43.72043,-63.02501 -6.81352,-28.38984 -32.364142,-79.49121 -32.364142,-79.49121 L 71.989053,619.5059 48.709181,566.70097 Z"
       id="path4149"
       inkscape:connector-curvature="0"
       sodipodi:nodetypes="ccsssccscccc" />
    <path
       style="fill:#f0e74c;fill-opacity:1;fill-rule:evenodd;stroke:#000000;stroke-width:5;stroke-linecap:butt;stroke-linejoin:miter;stroke-opacity:1;stroke-miterlimit:4;stroke-dasharray:none"
       d="m 162.83652,829.02186 c 7.62835,-7.22691 -10.35789,-26.39418 0.88323,-54.49855 18.46857,-46.97432 41.13311,-73.82284 41.13311,-73.82284 31.71763,-40.55051 71.54212,-57.91517 71.54212,-57.91517 l 131.72828,-72.67763 128.56067,-70.01932 c 0,0 94.01163,-18.13662 118.10124,1.13496 14.85516,-8.83279 -23.89266,-35.23667 -36.33867,-54.50825 -6.02256,-10.43883 -22.71195,-14.76267 -22.71195,-14.76267 -34.52799,-12.44614 -47.69464,4.54238 -47.69464,4.54238 -2.40884,12.04468 -34.0676,34.0677 -34.0676,34.0677 -70.6624,41.35363 -45.56898,36.55531 -115.83017,65.86408 l -46.79843,24.5958 c -49.78499,27.30146 -137.74861,42.87676 -171.47386,47.69471 -52.59535,7.22691 -79.86884,5.96532 -93.118222,-5.67789 -30.914579,-30.51334 -20.80677,-32.16256 -40.881123,-52.23707 -15.256686,-9.63571 -20.440561,-1.13499 -20.440561,-1.13499 1.888632,7.77696 4.558998,25.52183 19.647374,27.84323 18.425935,2.83489 39.403242,141.35947 39.403242,141.35947 4.221106,30.77236 27.47998,42.62728 34.08287,72.41666 5.67545,25.60347 14.24429,69.08764 44.27277,37.73539 z"
       id="path4147"
       inkscape:connector-curvature="0"
       sodipodi:nodetypes="cccccccccccccccccscscc" />
    <path
       style="fill:#676209;fill-opacity:1;fill-rule:evenodd;stroke:none;stroke-width:1px;stroke-linecap:butt;stroke-linejoin:miter;stroke-opacity:1"
       d="m 566.63151,466.86205 c 0,0 19.76242,-26.03338 30.27198,-23.45834 10.50943,2.5753 -30.27198,23.45834 -30.27198,23.45834 z"
       id="path4151"
       inkscape:connector-curvature="0" />
    <path
       style="opacity:1;fill:#2ba377;fill-opacity:1;fill-rule:evenodd;stroke:#000000;stroke-width:5;stroke-linecap:butt;stroke-linejoin:miter;stroke-opacity:1;stroke-miterlimit:4;stroke-dasharray:none"
       d="m 468.50528,491.72531 c 7.84539,-3.10688 11.03013,-24.70112 23.22545,-32.46881 -0.38837,-5.12692 -12.03995,-1.70886 -12.03995,-1.70886 -4.03922,1.32037 -20.50679,14.914 -20.50679,14.914 -13.82652,4.6605 -34.64401,2.56316 -36.66363,4.34965 -5.51509,6.29204 -6.21417,15.53571 -6.21417,15.53571 l -0.24435,71.70727 c -4.17436,13.18223 -10.3261,15.13926 -10.3261,15.13926 0,0 -4.58791,3.60992 -9.42139,3.82979 l -3.62192,-6.78522 -1.24282,-72.70566 c 4.16005,-12.93249 9.22007,-6.92773 15.53544,-14.91401 0,0 3.57312,-4.81608 8.07842,-11.18544 -1.39818,-3.10722 -5.59274,-4.97135 -5.59274,-4.97135 -4.66062,-3.1072 -9.32129,3.72828 -9.32129,3.72828 -4.3499,-0.62137 -5.59273,-5.12661 -10.56409,-4.34997 0,0 -16.00146,6.05883 -18.02109,13.04989 0,0 -4.97133,12.11765 -2.48567,18.6426 8.87702,20.00596 -1.19828,68.47119 5.89699,78.97131 2.64103,4.34996 -5.43743,6.99105 -5.43743,6.99105 -5.90344,2.17498 -9.15942,-3.93538 -9.15942,-3.93538 l 5.7481,-51.73281 c -1.24281,-15.5354 -6.83555,-19.88536 -8.85518,-22.83731 -4.66061,-7.30159 -3.10708,-21.74949 -3.10708,-21.74949 l 6.21416,-7.45719 c 0,0 3.11357,-14.06643 -0.6214,-18.02091 0.76897,-7.7995 6.20774,-8.03432 9.72297,-13.30728 0,0 -1.60361,-7.12404 -4.13021,-8.44252 -2.85616,-1.31817 -8.07844,2.48584 -8.07844,2.48584 -4.39409,4.17432 -6.8356,15.53539 -6.8356,15.53539 -3.75632,5.31496 -4.62813,7.74575 -6.94218,11.61845 0,0 -9.5033,4.13012 -11.70033,7.64553 0,0 -4.94012,13.59458 -1.64456,28.31485 0,0 5.95679,13.79089 6.6159,16.42722 0.8788,5.71235 -1.53148,8.54244 -1.53148,8.54244 -0.21987,4.39417 9.50329,20.81504 9.50329,20.81504 0,0 2.85614,25.23246 -1.75765,37.75545 -7.03055,-5.93188 -7.45701,-20.50673 -7.45701,-20.50673 -3.07588,-9.22744 -33.33038,-37.95051 -37.28505,-33.55633 0,0 -3.28265,-28.6349 -7.457,-42.25655 0,0 -21.8498,-49.48719 -27.34239,-53.44198 0,0 7.88998,33.09146 11.18555,48.47064 0,0 3.5842,16.41959 2.48566,33.55662 0,0 0.13769,11.58061 4.97134,15.53542 0,0 10.43161,13.55799 23.61386,15.5354 0,0 4.97134,5.07792 4.97134,6.83547 0.87878,2.63664 -3.8039,5.87493 -2.48568,11.80713 1.75764,8.34868 5.62399,7.35026 6.94222,11.30506 0,12.30349 -3.36448,8.59843 -0.72802,19.14436 12.74286,17.57644 26.0995,30.44943 26.0995,30.44943 3.95469,14.06101 39.43797,58.0449 41.63499,144.16887 0,0 5.15334,5.29109 5.59275,10.56405 -1.31823,8.349 -11.83815,6.41454 -14.91402,17.39985 0.87881,55.3653 -9.49034,75.47784 -17.39969,121.17626 4.83348,11.42479 24.71127,19.53458 45.36347,11.1855 7.46996,-28.56144 1.63812,-32.66992 5.59279,-59.03472 7.90934,-37.78886 16.62292,-37.12963 15.53541,-52.82029 0,0 -4.97132,-30.605 -11.18552,-39.14936 1.86426,-2.01971 3.10711,-6.83547 3.10711,-6.83547 0.62142,-3.26248 8.07841,-38.52796 8.07841,-38.52796 7.45704,-15.5354 58.72397,-41.01348 58.87934,-55.9275 1.86424,-10.87492 -9.16593,-19.88538 -9.16593,-19.88538 -0.15526,-9.16602 6.68025,-13.36073 6.68025,-13.36073 2.01959,-5.74798 0.15526,-21.28339 0.15526,-21.28339 -0.62141,-5.28217 -6.99095,-7.30157 -5.74813,-21.74949 0,0 5.43742,-13.20514 6.36954,-20.04093 0,0 -2.33031,-16.77816 -3.10707,-19.88536 0,0 9.78731,-23.61395 15.53543,-26.09946 0,0 18.64251,-15.22488 28.58518,-18.02123 14.44799,-8.69961 17.39974,-1.70888 37.9065,-7.45686 0,0 -7.30165,-12.73904 -19.88536,-13.0499 -15.06939,1.39835 -21.12821,4.66082 -27.96381,8.85521 l -29.2066,19.7301 c -12.73907,12.8943 -29.1442,45.04369 -33.09888,47.02109 -3.84481,1.20808 -8.29163,-15.44187 -8.29163,-15.44187 0,0 0.59341,-7.43776 2.24119,-16.6652 l -3.72853,-13.0499 c -0.54924,-5.05311 -3.72848,-8.07822 -3.72848,-8.07822 -1.86747,-9.22777 4.97133,-24.23533 4.97133,-24.23533 10.17571,-11.80713 29.20664,-11.80713 29.20662,-11.80713 z"
       id="path4164"
       inkscape:connector-curvature="0"
       sodipodi:nodetypes="cccccccccccccccccccccccccccccccccccccccccccccccccccccccccccccccccccccccccccccccc" />
    <path
       style="opacity:1;fill:#24524f;fill-opacity:1;fill-rule:evenodd;stroke:none;stroke-width:1px;stroke-linecap:butt;stroke-linejoin:miter;stroke-opacity:1"
       d="m 847.94716,277.4874 c -4.08165,-7.49663 -2.49408,-23.09917 -0.98451,-29.53262 2.08833,-7.48302 25.42607,-25.91834 25.42607,-25.91834 7.49648,-4.12104 23.53786,-2.86937 30.1939,0.81553 17.42185,12.18161 28.71453,30.44719 30.20407,41.23652 -2.0884,10.26752 -8.48183,18.61968 -8.48183,18.61968 -1.04431,3.48043 1.42201,6.32897 -1.36244,11.89751 -3.82854,5.22077 -17.71964,18.70402 -17.71964,18.70402 -3.30632,5.56885 -1.5313,22.37309 -3.44552,27.07177 -2.95841,8.87523 -13.7819,19.68842 -13.7819,19.68842 -7.30904,4.35059 -15.75081,-0.49221 -15.75081,-0.49221 0,0 -8.68051,-7.11451 -11.81306,-11.81318 4.892,3.55581 10.22758,9.10876 14.27418,8.85995 6.26485,1.3923 11.81308,-2.461 11.81308,-2.461 5.22077,-3.65445 10.82857,-16.243 10.82857,-16.243 0,0 0.34305,-18.14182 2.95334,-25.10295 0,0 8.21309,-12.12594 13.78199,-15.25861 4.17647,-5.91661 3.24157,-15.07916 3.24157,-15.07916 0,-5.22077 10.04812,-15.43771 10.04812,-15.43771 -4.52459,-14.27007 -4.91608,-24.85388 -28.23525,-38.77573 -5.61671,1.88212 -4.1542,4.6353 -7.47273,8.07414 -4.28322,2.32847 -12.21009,1.6795 -17.94829,4.86753 -6.18026,3.34132 -15.28269,12.35528 -12.47922,21.02083 -0.32333,10.35186 -11.02749,19.08709 -13.28969,15.25861 z"
       id="path4174"
       inkscape:connector-curvature="0"
       sodipodi:nodetypes="cccccccccccccccccccccccc" />
    <path
       style="opacity:1;fill:#24524f;fill-opacity:1;fill-rule:evenodd;stroke:none;stroke-width:1px;stroke-linecap:butt;stroke-linejoin:miter;stroke-opacity:1"
       d="m 879.57163,318.21802 c -0.73826,-13.65884 3.07639,-17.59646 3.07639,-17.59646 3.5685,0.86129 7.6292,-1.96882 7.6292,-1.96882 4.42994,-1.96912 11.32088,-15.99705 11.32088,-15.99705 1.96893,-6.39864 0.98452,-17.47334 0.98452,-17.47334 -0.49221,-2.58415 -5.41435,-4.92236 -5.41435,-4.92236 -1.84573,-1.23036 -6.64479,-0.4922 -6.64479,-0.4922 -1.32427,1.42984 -3.32976,2.51893 -0.24636,6.15268 1.29204,0.97582 1.95747,2.04072 5.41444,2.70729 1.47671,1.59973 1.84563,5.53736 -0.49231,11.81285 0,0 -0.9843,4.67608 -5.0451,7.01429 -2.11363,2.1858 -1.43146,4.4696 -4.92214,4.7989 -3.03537,-0.245 -3.26658,-2.5711 -9.47515,-0.98441 -2.83025,3.93761 -1.23056,13.16666 -0.24626,16.98147 0.49221,2.46101 4.06103,9.96716 4.06103,9.96716 z"
       id="path4176"
       inkscape:connector-curvature="0"
       sodipodi:nodetypes="ccccccccccccccc" />
    <path
       style="color:#000000;font-style:normal;font-variant:normal;font-weight:normal;font-stretch:normal;font-size:medium;line-height:normal;font-family:sans-serif;text-indent:0;text-align:start;text-decoration:none;text-decoration-line:none;text-decoration-style:solid;text-decoration-color:#000000;letter-spacing:normal;word-spacing:normal;text-transform:none;direction:ltr;block-progression:tb;writing-mode:lr-tb;baseline-shift:baseline;text-anchor:start;white-space:normal;clip-rule:nonzero;display:inline;overflow:visible;visibility:visible;opacity:1;isolation:auto;mix-blend-mode:normal;color-interpolation:sRGB;color-interpolation-filters:linearRGB;solid-color:#000000;solid-opacity:1;fill:#24524f;fill-opacity:1;fill-rule:evenodd;stroke:none;stroke-width:1px;stroke-linecap:butt;stroke-linejoin:miter;stroke-miterlimit:4;stroke-dasharray:none;stroke-dashoffset:0;stroke-opacity:1;color-rendering:auto;image-rendering:auto;shape-rendering:auto;text-rendering:auto;enable-background:accumulate"
       d="m 741.768,205.59947 c -10.96928,-1.34216 -21.43347,7.58267 -29.09504,13.40485 -10.21528,7.76294 -20.69454,18.95658 -26.06264,32.00278 -10.73618,26.09246 -10.96797,54.21386 -10.38347,56.18267 0.77419,2.21857 1.90533,1.75913 3.16918,0.30543 1.72282,-1.9688 0.87714,-28.55187 11.37165,-54.057 5.24736,-12.75284 16.51421,-22.94334 26.00698,-30.15729 9.49287,-7.21396 17.63109,-9.39771 32.8786,-3.72225 7.23915,0.78994 13.49549,-1.90805 6.50094,-8.46451 -3.49715,-3.32327 -10.72979,-5.04636 -14.3862,-5.49374 z"
       id="path4178"
       inkscape:connector-curvature="0"
       sodipodi:nodetypes="sssccssccs" />
    <path
       style="color:#000000;font-style:normal;font-variant:normal;font-weight:normal;font-stretch:normal;font-size:medium;line-height:normal;font-family:sans-serif;text-indent:0;text-align:start;text-decoration:none;text-decoration-line:none;text-decoration-style:solid;text-decoration-color:#000000;letter-spacing:normal;word-spacing:normal;text-transform:none;direction:ltr;block-progression:tb;writing-mode:lr-tb;baseline-shift:baseline;text-anchor:start;white-space:normal;clip-rule:nonzero;display:inline;overflow:visible;visibility:visible;opacity:1;isolation:auto;mix-blend-mode:normal;color-interpolation:sRGB;color-interpolation-filters:linearRGB;solid-color:#000000;solid-opacity:1;fill:#24524f;fill-opacity:1;fill-rule:evenodd;stroke:none;stroke-width:1px;stroke-linecap:butt;stroke-linejoin:miter;stroke-miterlimit:4;stroke-dasharray:none;stroke-dashoffset:0;stroke-opacity:1;color-rendering:auto;image-rendering:auto;shape-rendering:auto;text-rendering:auto;enable-background:accumulate"
       d="m 700.07059,265.85908 c 0,0 -17.04377,19.37567 -12.42209,41.97085 0.81791,2.32483 3.49281,1.08526 3.11947,-0.63412 -4.23798,-20.71928 12.16269,-35.43411 12.16269,-38.38733 -0.0283,-2.23863 -1.52869,-3.31688 -2.86007,-2.9494 z"
       id="path4182"
       inkscape:connector-curvature="0"
       sodipodi:nodetypes="ccccc" />
    <path
       style="opacity:1;fill:#24524f;fill-opacity:1;fill-rule:evenodd;stroke:none;stroke-width:1px;stroke-linecap:butt;stroke-linejoin:miter;stroke-opacity:1"
       d="m 625.08254,802.43838 c 0,0 7.65694,1.21794 12.87765,-2.61057 4.17658,-2.9583 11.31166,-4.35058 11.31166,-4.35058 5.91671,0.69614 1.39212,5.74289 1.39212,5.74289 0,0 -8.5272,5.04673 -13.22584,6.78678 0,0 -8.35316,4.52465 -13.0516,1.56634 -0.94307,-0.59369 -4.17658,-3.8285 0.69601,-7.13486 z"
       id="path4157"
       inkscape:connector-curvature="0"
       sodipodi:nodetypes="cccccsc" />
    <path
       style="color:#000000;font-style:normal;font-variant:normal;font-weight:normal;font-stretch:normal;font-size:medium;line-height:normal;font-family:sans-serif;text-indent:0;text-align:start;text-decoration:none;text-decoration-line:none;text-decoration-style:solid;text-decoration-color:#000000;letter-spacing:normal;word-spacing:normal;text-transform:none;direction:ltr;block-progression:tb;writing-mode:lr-tb;baseline-shift:baseline;text-anchor:start;white-space:normal;clip-rule:nonzero;display:inline;overflow:visible;visibility:visible;opacity:1;isolation:auto;mix-blend-mode:normal;color-interpolation:sRGB;color-interpolation-filters:linearRGB;solid-color:#000000;solid-opacity:1;fill:#24524f;fill-opacity:1;fill-rule:evenodd;stroke:none;stroke-width:2.0999999;stroke-linecap:butt;stroke-linejoin:miter;stroke-miterlimit:4;stroke-dasharray:none;stroke-dashoffset:0;stroke-opacity:1;color-rendering:auto;image-rendering:auto;shape-rendering:auto;text-rendering:auto;enable-background:accumulate"
       d="m 434.75605,569.78507 c 0,0 -4.93151,2.5116 -2.07846,10.97543 1.36915,4.06171 6.07149,14.78516 11.06745,17.28308 1.69184,0.84602 4.30084,3.61469 3.41776,8.28347 -1.35663,7.17241 -1.63082,11.42405 -2.69093,17.42465 0.48996,11.47943 1.17392,22.30756 1.17392,22.30756 -1.59966,3.91121 4.87201,5.65603 6.33847,2.11262 0,0 -1.76972,-11.15711 0.46052,-23.78003 1.11509,-6.31175 2.19234,-16.69574 1.72757,-22.43386 -0.46474,-5.73813 -2.51736,-7.43204 -7.4384,-9.89241 -11.04503,-5.5224 -5.44566,-20.7616 -5.44566,-20.7616 -0.58177,-2.39675 -1.18899,-3.7868 -1.8258,-4.45941 -1.40873,-1.48806 -2.96241,0.53549 -4.70652,2.9405 z"
       id="path4171"
       inkscape:connector-curvature="0"
       sodipodi:nodetypes="cssscccssscscc" />
    <path
       style="color:#000000;font-style:normal;font-variant:normal;font-weight:normal;font-stretch:normal;font-size:medium;line-height:normal;font-family:sans-serif;text-indent:0;text-align:start;text-decoration:none;text-decoration-line:none;text-decoration-style:solid;text-decoration-color:#000000;letter-spacing:normal;word-spacing:normal;text-transform:none;direction:ltr;block-progression:tb;writing-mode:lr-tb;baseline-shift:baseline;text-anchor:start;white-space:normal;clip-rule:nonzero;display:inline;overflow:visible;visibility:visible;opacity:1;isolation:auto;mix-blend-mode:normal;color-interpolation:sRGB;color-interpolation-filters:linearRGB;solid-color:#000000;solid-opacity:1;fill:#24524f;fill-opacity:1;fill-rule:evenodd;stroke:none;stroke-width:2.5;stroke-linecap:butt;stroke-linejoin:miter;stroke-miterlimit:4;stroke-dasharray:none;stroke-dashoffset:0;stroke-opacity:1;color-rendering:auto;image-rendering:auto;shape-rendering:auto;text-rendering:auto;enable-background:accumulate"
       d="m 399.34888,582.35039 c -2.12336,9.74254 3.29381,10.25384 5.39301,21.61014 1.11014,6.00569 -1.80999,22.5783 -0.47876,28.67468 1.0952,5.01556 3.62774,8.6573 3.97769,13.52554 0.60579,8.42791 3.80578,23.98367 3.2556,31.13572 -0.24625,9.84436 7.68317,11.68399 7.92926,0.60895 0.97121,-12.62544 -3.58,-29.52482 -7.38863,-46.96666 -1.89695,-8.68689 -0.64935,-17.95824 -1.5538,-26.09661 -0.91154,-8.20166 -5.19307,-19.69032 -3.85266,-25.84045 -1.53815,0.24497 -3.83623,2.73334 -7.28171,3.34869 z"
       id="path4173"
       inkscape:connector-curvature="0"
       sodipodi:nodetypes="csssccsscc" />
    <path
       style="color:#000000;font-style:normal;font-variant:normal;font-weight:normal;font-stretch:normal;font-size:medium;line-height:normal;font-family:sans-serif;text-indent:0;text-align:start;text-decoration:none;text-decoration-line:none;text-decoration-style:solid;text-decoration-color:#000000;letter-spacing:normal;word-spacing:normal;text-transform:none;direction:ltr;block-progression:tb;writing-mode:lr-tb;baseline-shift:baseline;text-anchor:start;white-space:normal;clip-rule:nonzero;display:inline;overflow:visible;visibility:visible;opacity:1;isolation:auto;mix-blend-mode:normal;color-interpolation:sRGB;color-interpolation-filters:linearRGB;solid-color:#000000;solid-opacity:1;fill:#24524f;fill-opacity:1;fill-rule:evenodd;stroke:none;stroke-width:2.79999995;stroke-linecap:butt;stroke-linejoin:miter;stroke-miterlimit:4;stroke-dasharray:none;stroke-dashoffset:0;stroke-opacity:1;color-rendering:auto;image-rendering:auto;shape-rendering:auto;text-rendering:auto;enable-background:accumulate"
       d="m 363.75895,589.10535 c -0.55219,2.76138 0.99706,2.20077 1.65934,5.30033 0.66219,3.09959 1.67241,6.77918 2.91446,11.00537 2.48411,8.4527 10.933,27.41283 14.21259,39.10702 6.55914,23.38869 7.47008,42.79394 4.82765,64.92459 -0.73831,7.13678 6.13558,19.08358 8.84275,1.05632 2.9263,-24.50768 -3.47493,-52.96729 -10.14153,-76.73905 -3.33329,-11.88572 -5.71461,-26.59294 -8.14661,-34.86811 -1.21605,-4.13774 -1.01602,-4.65603 -1.5883,-7.33467 -0.57228,-2.67865 0.45052,-5.38083 -2.53804,-4.18611 0,0 -6.56185,3.56154 -10.04231,1.73431 z"
       id="path4175"
       inkscape:connector-curvature="0"
       sodipodi:nodetypes="ccssccssscc" />
  </g>
</svg>
